<svg width="21" height="21" viewBox="0 0 21 21" fill="none" xmlns="http://www.w3.org/2000/svg">
<path d="M10.232 0.574951C8.89394 0.575428 7.59006 0.997433 6.50548 1.78104C5.4209 2.56465 4.61076 3.67003 4.1901 4.94023C3.76943 6.21042 3.75962 7.58086 4.16206 8.85694C4.5645 10.133 5.35873 11.2499 6.43198 12.049V12.581C6.24258 12.7467 6.08848 12.9488 5.97882 13.1754C5.86917 13.4019 5.80621 13.6482 5.79371 13.8995C5.78121 14.1509 5.81941 14.4022 5.90605 14.6385C5.99268 14.8748 6.12597 15.0912 6.29798 15.275C6.08062 15.5076 5.92593 15.7916 5.84844 16.1004C5.77095 16.4092 5.7732 16.7327 5.85497 17.0404C5.93675 17.3481 6.09536 17.63 6.31594 17.8595C6.53651 18.0891 6.81181 18.2589 7.11598 18.353C7.23838 19.0919 7.61914 19.7635 8.19043 20.2479C8.76172 20.7324 9.48644 20.9983 10.2355 20.9983C10.9845 20.9983 11.7092 20.7324 12.2805 20.2479C12.8518 19.7635 13.2326 19.0919 13.355 18.353C13.6587 18.2582 13.9333 18.0879 14.1532 17.858C14.3731 17.6281 14.5311 17.3461 14.6122 17.0385C14.6934 16.7309 14.6951 16.4077 14.6172 16.0993C14.5393 15.7908 14.3844 15.5072 14.167 15.275C14.339 15.0912 14.4723 14.8748 14.5589 14.6385C14.6456 14.4022 14.6838 14.1509 14.6713 13.8995C14.6587 13.6482 14.5958 13.4019 14.4861 13.1754C14.3765 12.9488 14.2224 12.7467 14.033 12.581V12.049C15.1063 11.2498 15.9006 10.1329 16.303 8.85671C16.7054 7.58052 16.6955 6.20999 16.2747 4.93975C15.8539 3.66951 15.0436 2.56413 13.9589 1.7806C12.8741 0.997072 11.5701 0.575218 10.232 0.574951ZM12.796 13.309C12.9727 13.3157 13.14 13.3907 13.2627 13.5181C13.3853 13.6456 13.4538 13.8156 13.4538 13.9925C13.4538 14.1693 13.3853 14.3393 13.2627 14.4668C13.14 14.5942 12.9727 14.6692 12.796 14.676H7.66698C7.57502 14.6795 7.4833 14.6644 7.3973 14.6316C7.31131 14.5989 7.23281 14.5491 7.16651 14.4853C7.1002 14.4215 7.04746 14.3449 7.01143 14.2602C6.9754 14.1756 6.95683 14.0845 6.95683 13.9925C6.95683 13.9004 6.9754 13.8093 7.01143 13.7247C7.04746 13.64 7.1002 13.5634 7.16651 13.4996C7.23281 13.4358 7.31131 13.386 7.3973 13.3533C7.4833 13.3205 7.57502 13.3054 7.66698 13.309H12.796ZM10.232 19.804C9.81547 19.8034 9.40988 19.6707 9.07351 19.4251C8.73714 19.1795 8.48732 18.8335 8.35998 18.437H12.105C11.9776 18.8337 11.7276 19.1798 11.3911 19.4254C11.0545 19.671 10.6487 19.8036 10.232 19.804ZM12.796 17.24H7.66698C7.4857 17.24 7.31185 17.1679 7.18367 17.0398C7.05549 16.9116 6.98348 16.7377 6.98348 16.5565C6.98348 16.3752 7.05549 16.2013 7.18367 16.0731C7.31185 15.945 7.4857 15.873 7.66698 15.873H12.795C12.9763 15.873 13.1501 15.945 13.2783 16.0731C13.4065 16.2013 13.4785 16.3752 13.4785 16.5565C13.4785 16.7377 13.4065 16.9116 13.2783 17.0398C13.1501 17.1679 12.9763 17.24 12.795 17.24H12.796ZM13.104 11.24C13.0219 11.2949 12.9547 11.3694 12.9083 11.4566C12.8619 11.5438 12.8377 11.6412 12.838 11.74V12.114H12.112V9.75395L12.971 8.89495C13.0338 8.84116 13.0848 8.77497 13.1208 8.70053C13.1568 8.62609 13.1771 8.54501 13.1803 8.46238C13.1835 8.37975 13.1695 8.29735 13.1394 8.22036C13.1092 8.14336 13.0634 8.07343 13.005 8.01496C12.9465 7.95649 12.8766 7.91073 12.7996 7.88057C12.7226 7.8504 12.6402 7.83648 12.5576 7.83967C12.4749 7.84286 12.3938 7.8631 12.3194 7.89912C12.245 7.93513 12.1788 7.98614 12.125 8.04895L11.09 9.08395C10.978 9.19628 10.9151 9.34836 10.915 9.50695V12.113H9.54798V9.50595C9.54784 9.34736 9.48492 9.19528 9.37298 9.08295L8.33798 8.04795C8.2842 7.98514 8.218 7.93413 8.14356 7.89812C8.06913 7.8621 7.98804 7.84186 7.90541 7.83867C7.82278 7.83548 7.74038 7.8494 7.66339 7.87957C7.58639 7.90973 7.51647 7.95549 7.45799 8.01396C7.39952 8.07243 7.35377 8.14236 7.3236 8.21936C7.29344 8.29635 7.27951 8.37875 7.2827 8.46138C7.28589 8.54401 7.30614 8.62509 7.34215 8.69953C7.37816 8.77397 7.42917 8.84016 7.49198 8.89395L8.35098 9.75295V12.112H7.62498V11.738C7.62524 11.6392 7.60109 11.5418 7.55469 11.4546C7.50829 11.3674 7.44106 11.2929 7.35898 11.238C6.43669 10.6218 5.73702 9.72535 5.36329 8.68103C4.98957 7.63671 4.96161 6.49988 5.28355 5.43845C5.60549 4.37703 6.26026 3.44728 7.15115 2.78652C8.04204 2.12577 9.1218 1.76905 10.231 1.76905C11.3402 1.76905 12.4199 2.12577 13.3108 2.78652C14.2017 3.44728 14.8565 4.37703 15.1784 5.43845C15.5004 6.49988 15.4724 7.63671 15.0987 8.68103C14.7249 9.72535 14.0253 10.6218 13.103 11.238L13.104 11.24Z" fill="white"/>
<path d="M2.49899 6.94194C2.49899 6.78281 2.43578 6.63021 2.32325 6.51768C2.21073 6.40516 2.05812 6.34195 1.89899 6.34195H0.619989C0.541196 6.34195 0.463174 6.35747 0.390379 6.38762C0.317584 6.41777 0.25144 6.46197 0.195725 6.51768C0.14001 6.5734 0.0958141 6.63953 0.0656613 6.71233C0.0355085 6.78512 0.019989 6.86315 0.019989 6.94194C0.019989 7.02073 0.0355085 7.09876 0.0656613 7.17155C0.0958141 7.24435 0.14001 7.3105 0.195725 7.36621C0.25144 7.42193 0.317584 7.46612 0.390379 7.49628C0.463174 7.52643 0.541196 7.54195 0.619989 7.54195H1.89999C2.05895 7.54168 2.2113 7.47835 2.32361 7.36586C2.43591 7.25337 2.49899 7.1009 2.49899 6.94194Z" fill="white"/>
<path d="M19.846 6.34195H18.564C18.4852 6.34195 18.4072 6.35747 18.3344 6.38762C18.2616 6.41777 18.1955 6.46197 18.1397 6.51768C18.084 6.5734 18.0398 6.63953 18.0097 6.71233C17.9795 6.78512 17.964 6.86315 17.964 6.94194C17.964 7.02073 17.9795 7.09876 18.0097 7.17155C18.0398 7.24435 18.084 7.3105 18.1397 7.36621C18.1955 7.42193 18.2616 7.46612 18.3344 7.49628C18.4072 7.52643 18.4852 7.54195 18.564 7.54195H19.846C19.9248 7.54195 20.0028 7.52643 20.0756 7.49628C20.1484 7.46612 20.2145 7.42193 20.2703 7.36621C20.326 7.3105 20.3702 7.24435 20.4003 7.17155C20.4305 7.09876 20.446 7.02073 20.446 6.94194C20.446 6.86315 20.4305 6.78512 20.4003 6.71233C20.3702 6.63953 20.326 6.5734 20.2703 6.51768C20.2145 6.46197 20.1484 6.41777 20.0756 6.38762C20.0028 6.35747 19.9248 6.34195 19.846 6.34195Z" fill="white"/>
<path d="M2.71798 10.59L1.60798 11.231C1.53416 11.2672 1.4686 11.3183 1.41534 11.3809C1.36209 11.4436 1.32228 11.5166 1.2984 11.5953C1.27452 11.674 1.26708 11.7567 1.27653 11.8384C1.28598 11.9201 1.31213 11.999 1.35334 12.0702C1.39456 12.1413 1.44997 12.2033 1.51613 12.2521C1.58228 12.301 1.65778 12.3357 1.73792 12.3542C1.81807 12.3726 1.90115 12.3744 1.98201 12.3594C2.06288 12.3444 2.13979 12.3129 2.20798 12.267L3.31798 11.6259C3.39086 11.5891 3.45547 11.5378 3.50783 11.4752C3.5602 11.4125 3.59922 11.3398 3.62251 11.2616C3.6458 11.1833 3.65287 11.1011 3.64328 11.02C3.6337 10.9389 3.60766 10.8606 3.56677 10.7899C3.52587 10.7193 3.47098 10.6577 3.40545 10.6089C3.33992 10.5602 3.26514 10.5254 3.18568 10.5066C3.10622 10.4877 3.02375 10.4853 2.94333 10.4995C2.86291 10.5137 2.78623 10.5441 2.71798 10.5889V10.59Z" fill="white"/>
<path d="M17.449 3.37395C17.5543 3.37407 17.6577 3.34648 17.749 3.29395L18.859 2.65295C18.9328 2.61669 18.9984 2.56563 19.0516 2.50296C19.1049 2.44029 19.1447 2.36734 19.1686 2.28865C19.1925 2.20995 19.1999 2.12718 19.1905 2.04548C19.181 1.96378 19.1548 1.8849 19.1136 1.81373C19.0724 1.74257 19.017 1.68063 18.9508 1.63178C18.8847 1.58292 18.8092 1.54819 18.729 1.52973C18.6489 1.51128 18.5658 1.5095 18.485 1.5245C18.4041 1.53951 18.3272 1.57098 18.259 1.61695L17.149 2.25795C17.0359 2.32456 16.9477 2.42641 16.8981 2.54791C16.8484 2.6694 16.8399 2.80383 16.874 2.9306C16.908 3.05736 16.9827 3.16947 17.0866 3.24973C17.1904 3.32999 17.3178 3.37398 17.449 3.37495V3.37395Z" fill="white"/>
<path d="M18.858 11.231L17.748 10.5899C17.6798 10.544 17.6029 10.5125 17.522 10.4975C17.4412 10.4825 17.3581 10.4843 17.278 10.5027C17.1978 10.5212 17.1223 10.5559 17.0562 10.6048C16.99 10.6536 16.9346 10.7156 16.8934 10.7867C16.8522 10.8579 16.826 10.9368 16.8166 11.0185C16.8071 11.1002 16.8145 11.1829 16.8384 11.2616C16.8623 11.3403 16.9021 11.4133 16.9554 11.476C17.0086 11.5386 17.0742 11.5897 17.148 11.6259L18.258 12.2669C18.3262 12.3129 18.4031 12.3444 18.484 12.3594C18.5649 12.3744 18.6479 12.3726 18.7281 12.3542C18.8082 12.3357 18.8837 12.301 18.9499 12.2521C19.016 12.2033 19.0714 12.1413 19.1127 12.0702C19.1539 11.999 19.18 11.9201 19.1895 11.8384C19.1989 11.7567 19.1915 11.674 19.1676 11.5953C19.1437 11.5166 19.1039 11.4436 19.0506 11.3809C18.9974 11.3183 18.9318 11.2672 18.858 11.231Z" fill="white"/>
<path d="M3.31997 2.25696L2.20997 1.61596C2.07351 1.54891 1.91668 1.53618 1.77119 1.58032C1.6257 1.62447 1.50239 1.7222 1.42619 1.85377C1.34999 1.98534 1.32658 2.14094 1.3607 2.2891C1.39481 2.43727 1.48391 2.56696 1.60997 2.65196L2.71997 3.29296C2.85675 3.36206 3.01478 3.3762 3.16166 3.33249C3.30853 3.28879 3.43311 3.19054 3.50986 3.0579C3.5866 2.92526 3.60969 2.76829 3.57438 2.61917C3.53907 2.47005 3.44805 2.3401 3.31997 2.25596V2.25696Z" fill="white"/>
</svg>
